<svg xmlns="http://www.w3.org/2000/svg" width="100" height="50" viewBox="0 0 100 50"><rect width="100%" height="100%" fill="#DDDDDD"/><path fill="#999999" d="M20.59 26.255q.28 0 .49-.09.22-.09.36-.26.15-.16.23-.4.08-.23.08-.52v-3.03h.94v3.03q0 .45-.14.83-.15.39-.42.67-.27.27-.66.43-.39.16-.88.16t-.87-.16q-.39-.16-.66-.43-.28-.28-.42-.67-.15-.38-.15-.83v-3.03h.95v3.03q0 .29.07.52.08.24.23.4.15.17.37.26.21.09.48.09Zm3.78-2.67.06.28q.11-.11.23-.2.12-.09.25-.16.14-.06.29-.1.15-.04.34-.04.29 0 .52.1.23.1.38.28.15.18.23.43.08.25.08.55v2.29h-.87v-2.29q0-.32-.15-.5-.15-.19-.46-.19-.22 0-.42.11-.19.1-.37.27v2.6h-.86v-3.59h.53q.16 0 .22.16Zm5.45 2.37v-1.61q-.15-.18-.32-.26-.17-.07-.37-.07-.2 0-.36.07-.15.08-.27.23-.11.14-.17.37-.06.23-.06.54 0 .32.05.54.05.22.15.36.09.13.23.2.14.06.3.06.27 0 .46-.12.19-.11.36-.31Zm0-4.14h.86v5.2h-.52q-.18 0-.22-.16l-.07-.34q-.22.24-.5.4-.28.15-.66.15-.29 0-.54-.12-.24-.12-.42-.36-.18-.23-.27-.57-.1-.34-.1-.79 0-.39.11-.74.11-.34.31-.59.2-.25.49-.4.28-.14.63-.14.3 0 .52.1.21.09.38.25v-1.89Zm2.4 2.99h1.63q0-.17-.05-.32-.04-.14-.14-.26-.09-.11-.24-.17-.14-.07-.33-.07-.38 0-.59.22-.22.21-.28.6Zm2.21.52H32.2q.02.28.1.48.08.2.2.33.13.13.3.2.18.06.39.06.21 0 .36-.05.15-.04.27-.1.11-.06.19-.11.09-.05.17-.05.11 0 .16.08l.25.31q-.14.17-.32.29-.18.11-.37.18-.2.07-.4.09-.2.03-.39.03-.37 0-.7-.12-.32-.13-.56-.37-.23-.24-.37-.6-.14-.36-.14-.83 0-.37.12-.69.12-.33.34-.57.22-.24.55-.38.32-.14.72-.14.34 0 .62.11.29.11.5.32.2.21.32.51.12.3.12.69 0 .2-.04.26-.04.07-.16.07Zm1.61-1.68.05.4q.17-.32.4-.5.23-.19.55-.19.25 0 .4.11l-.06.65q-.02.06-.05.09-.03.02-.09.02-.05 0-.16-.01-.1-.02-.2-.02-.14 0-.25.04-.11.04-.2.12-.09.08-.16.19t-.13.26v2.21h-.86v-3.59h.5q.14 0 .19.05.05.04.07.17Zm8.18.84q0 .56-.19 1.02-.18.47-.52.8-.33.34-.81.52-.47.19-1.05.19h-1.92v-5.06h1.92q.58 0 1.05.19.48.18.81.52.34.33.52.8.19.46.19 1.02Zm-.97 0q0-.42-.11-.75t-.32-.56q-.2-.23-.5-.35-.3-.12-.67-.12h-.98v3.56h.98q.37 0 .67-.12.3-.12.5-.35.21-.23.32-.56.11-.33.11-.75Zm2.34.32h1.64q0-.17-.05-.32-.05-.14-.14-.26-.1-.11-.24-.17-.15-.07-.34-.07-.38 0-.59.22-.22.21-.28.6Zm2.21.52h-2.22q.02.28.1.48.07.2.2.33.12.13.3.2.17.06.38.06t.36-.05q.16-.04.27-.1l.2-.11q.08-.05.16-.05.11 0 .17.08l.24.31q-.14.17-.32.29-.18.11-.37.18-.19.07-.4.09-.2.03-.39.03-.37 0-.69-.12-.32-.13-.56-.37-.24-.24-.38-.6-.13-.36-.13-.83 0-.37.12-.69.11-.33.34-.57.22-.24.54-.38.32-.14.72-.14.34 0 .63.11t.49.32q.21.21.33.51.11.3.11.69 0 .2-.04.26-.04.07-.16.07Zm3.41-1.9h.68l-1.43 3.59h-.78l-1.43-3.59h.72q.1 0 .16.04.07.05.09.12l.69 1.92q.06.17.1.33.04.16.07.32l.08-.32q.04-.16.1-.33l.71-1.92q.02-.07.08-.12.07-.04.16-.04Zm1.82 1.38h1.63q0-.17-.05-.32-.04-.14-.14-.26-.09-.11-.24-.17-.14-.07-.34-.07-.37 0-.59.22-.21.21-.27.6Zm2.2.52h-2.22q.02.28.1.48.08.2.2.33.13.13.3.2.17.06.38.06t.37-.05q.15-.04.26-.1.12-.06.2-.11.09-.05.17-.05.11 0 .16.08l.25.31q-.15.17-.32.29-.18.11-.38.18-.19.07-.39.09-.2.03-.39.03-.38 0-.7-.12-.32-.13-.56-.37-.24-.24-.37-.6-.14-.36-.14-.83 0-.37.12-.69.12-.33.34-.57.22-.24.54-.38.32-.14.73-.14.34 0 .62.11.29.11.5.32.2.21.32.51.12.3.12.69 0 .2-.05.26-.04.07-.16.07Zm.86-3.51h.87v5.2h-.87v-5.2Zm3.32 1.55q.4 0 .73.13.33.13.56.37.23.24.36.58.12.34.12.77 0 .42-.12.77-.13.34-.36.58-.23.24-.56.37-.33.13-.73.13-.4 0-.73-.13-.33-.13-.56-.37-.23-.24-.36-.58-.13-.35-.13-.77 0-.43.13-.77t.36-.58q.23-.24.56-.37.33-.13.73-.13Zm0 3.04q.45 0 .67-.3.21-.3.21-.89 0-.58-.21-.88-.22-.31-.67-.31-.45 0-.67.31-.22.31-.22.88 0 .58.22.88.22.31.67.31Zm3.3-1.93v1.61q.15.18.32.25t.38.07q.19 0 .35-.07.16-.07.27-.22.11-.15.17-.38.06-.23.06-.54 0-.32-.05-.54-.06-.22-.15-.35-.09-.14-.23-.2-.13-.07-.31-.07-.26 0-.45.12-.19.11-.36.32Zm-.12-.89.07.33q.22-.25.5-.4.28-.16.66-.16.3 0 .54.12.24.13.42.36.18.23.27.57.1.35.1.79 0 .4-.11.74-.11.35-.31.6t-.49.39q-.28.14-.63.14-.31 0-.52-.09-.21-.09-.38-.26v1.47h-.87v-4.76h.53q.17 0 .22.16Zm4.1 3.43h-.87v-3.59h.53q.17 0 .22.16l.06.26q.09-.1.19-.19.11-.09.22-.15.12-.06.26-.1.13-.04.29-.04.34 0 .56.19.22.18.33.48.08-.17.21-.3.12-.13.27-.21.15-.08.32-.12.17-.04.35-.04.29 0 .52.09.23.1.39.27t.24.43q.08.25.08.57v2.29H70v-2.29q0-.34-.15-.51-.15-.18-.44-.18-.13 0-.25.05-.11.05-.2.13-.08.09-.13.22t-.05.29v2.29h-.87v-2.29q0-.36-.14-.52-.15-.17-.43-.17-.19 0-.35.1-.16.09-.3.25v2.63Zm5.68-2.21H74q0-.17-.05-.32-.05-.14-.14-.26-.1-.11-.24-.17-.15-.07-.34-.07-.37 0-.59.22-.21.21-.27.6Zm2.2.52h-2.22q.02.28.1.48.07.2.2.33t.3.2q.17.06.38.06t.36-.05q.16-.04.27-.1l.2-.11q.09-.05.17-.05.1 0 .16.08l.25.31q-.15.17-.33.29-.18.11-.37.18-.19.07-.39.09-.21.03-.4.03-.37 0-.69-.12-.32-.13-.56-.37-.24-.24-.38-.6-.13-.36-.13-.83 0-.37.12-.69.12-.33.34-.57.22-.24.54-.38.32-.14.72-.14.34 0 .63.11t.49.32q.21.21.33.51.11.3.11.69 0 .2-.04.26-.04.07-.16.07Zm1.6-1.74.06.28q.11-.11.23-.2.12-.09.25-.16.14-.06.29-.1.16-.04.34-.04.29 0 .52.1.23.1.38.28.15.18.23.43.08.25.08.55v2.29h-.86v-2.29q0-.32-.15-.5-.16-.19-.46-.19-.23 0-.42.11-.2.1-.37.27v2.6h-.87v-3.59h.53q.17 0 .22.16Zm4.4 3.49q-.47 0-.72-.27-.25-.26-.25-.73v-2h-.37q-.07 0-.12-.05-.05-.04-.05-.14v-.34l.58-.09.18-.98q.02-.07.07-.11.05-.04.12-.04h.45v1.13h.96v.62h-.96v1.94q0 .17.08.27.09.09.23.09.08 0 .13-.02.06-.02.1-.04.04-.02.07-.04.03-.02.06-.02.04 0 .07.02.02.02.05.06l.26.42q-.19.16-.44.24-.24.08-.5.08Z"/></svg>